<?xml version="1.0" encoding="UTF-8" standalone="no"?>
<svg
   xmlns:dc="http://purl.org/dc/elements/1.1/"
   xmlns:cc="http://creativecommons.org/ns#"
   xmlns:rdf="http://www.w3.org/1999/02/22-rdf-syntax-ns#"
   xmlns:svg="http://www.w3.org/2000/svg"
   xmlns="http://www.w3.org/2000/svg"
   xmlns:sodipodi="http://sodipodi.sourceforge.net/DTD/sodipodi-0.dtd"
   xmlns:inkscape="http://www.inkscape.org/namespaces/inkscape"
   width="1488.189"
   height="1052.362"
   id="svg2"
   version="1.1"
   inkscape:version="0.91 r13725"
   sodipodi:docname="deckblatt_dummy.svg">
  <metadata
     id="metadata14">
    <rdf:RDF>
      <cc:Work
         rdf:about="">
        <dc:format>image/svg+xml</dc:format>
        <dc:type
           rdf:resource="http://purl.org/dc/dcmitype/StillImage" />
        <dc:title></dc:title>
      </cc:Work>
    </rdf:RDF>
  </metadata>
  <defs
     id="defs12" />
  <sodipodi:namedview
     pagecolor="#ffffff"
     bordercolor="#666666"
     borderopacity="1"
     objecttolerance="10"
     gridtolerance="10"
     guidetolerance="10"
     inkscape:pageopacity="0"
     inkscape:pageshadow="2"
     inkscape:window-width="1366"
     inkscape:window-height="704"
     id="namedview10"
     showgrid="false"
     inkscape:zoom="0.45014485"
     inkscape:cx="741.87298"
     inkscape:cy="526.18103"
     inkscape:window-x="0"
     inkscape:window-y="27"
     inkscape:window-maximized="1"
     inkscape:current-layer="svg2" />
  <path
     fill="#ff2600"
     d="M836.897 854.885l-7.728 20.955h15.48l-7.76-20.955zm-3.215-5.612h6.458l16.048 42.107h-5.923l-3.835-10.802h-18.98l-3.837 10.802h-6.007l16.076-42.107zm34.323 21.997v15.43h9.138q4.597 0 6.797-1.89 2.228-1.92 2.228-5.84 0-3.948-2.228-5.81-2.2-1.89-6.797-1.89h-9.138zm0-17.316v12.692h8.433q4.174 0 6.205-1.55 2.06-1.58 2.06-4.796 0-3.187-2.06-4.766-2.03-1.58-6.205-1.58h-8.433zm-5.697-4.68h14.553q6.52 0 10.05 2.706 3.53 2.708 3.53 7.7 0 3.864-1.8 6.148-1.8 2.285-5.3 2.85 4.21.9 6.52 3.778 2.34 2.848 2.34 7.135 0 5.65-3.83 8.72t-10.91 3.08h-15.12v-42.11zm63.825 1.38v5.557q-3.244-1.55-6.12-2.31-2.877-.76-5.557-.76-4.653 0-7.192 1.81-2.51 1.81-2.51 5.14 0 2.79 1.664 4.23 1.693 1.41 6.374 2.29l3.44.71q6.375 1.21 9.393 4.29 3.046 3.05 3.046 8.18 0 6.12-4.11 9.28-4.09 3.16-12.01 3.16-2.99 0-6.37-.67-3.35-.67-6.96-2v-5.86q3.47 1.95 6.8 2.93 3.33.99 6.55.99 4.88 0 7.53-1.92 2.65-1.92 2.65-5.47 0-3.11-1.91-4.85-1.89-1.75-6.23-2.62l-3.47-.67q-6.37-1.27-9.22-3.98-2.85-2.7-2.85-7.53 0-5.58 3.92-8.8 3.95-3.21 10.86-3.21 2.96 0 6.04.54t6.29 1.61zm42.953 1.862v6.007q-2.876-2.68-6.148-4.005-3.243-1.325-6.91-1.325-7.22 0-11.056 4.428-3.835 4.4-3.835 12.75 0 8.32 3.835 12.75 3.836 4.4 11.056 4.4 3.667 0 6.91-1.32 3.272-1.32 6.148-4v5.95q-2.99 2.03-6.345 3.05-3.32 1.02-7.05 1.02-9.56 0-15.06-5.83-5.5-5.86-5.5-15.99 0-10.15 5.5-15.99 5.5-5.86 15.06-5.86 3.78 0 7.11 1.02 3.36.99 6.29 2.99zm8.856-3.243h5.697v17.26h20.7v-17.26h5.69v42.107h-5.7v-20.052h-20.7v20.052h-5.7v-42.107zm43.433 0h5.698v37.313h20.503v4.794h-26.2v-42.107zm28.683 0h5.726v25.58q0 6.77 2.453 9.76 2.454 2.96 7.954 2.96 5.48 0 7.93-2.96 2.46-2.99 2.46-9.76v-25.58h5.73v26.285q0 8.236-4.09 12.438-4.06 4.202-12.01 4.202-7.98 0-12.07-4.202-4.06-4.202-4.06-12.438v-26.285zm68.196 1.382v5.556q-3.243-1.55-6.12-2.31-2.877-.76-5.556-.76-4.653 0-7.192 1.81-2.51 1.81-2.51 5.14 0 2.79 1.664 4.23 1.692 1.41 6.374 2.29l3.44.71q6.375 1.21 9.393 4.29 3.046 3.05 3.046 8.18 0 6.12-4.118 9.28-4.09 3.16-12.015 3.16-2.99 0-6.374-.67-3.356-.67-6.966-2v-5.86q3.47 1.95 6.797 2.93 3.328.99 6.543.99 4.88 0 7.53-1.92 2.652-1.92 2.652-5.47 0-3.11-1.918-4.85-1.89-1.75-6.233-2.62l-3.46-.67q-6.37-1.27-9.22-3.98-2.85-2.7-2.85-7.53 0-5.58 3.92-8.8 3.95-3.21 10.86-3.21 2.96 0 6.04.54t6.29 1.61zm36.666 0v5.556q-3.245-1.55-6.12-2.31-2.878-.76-5.557-.76-4.654 0-7.192 1.81-2.51 1.81-2.51 5.14 0 2.79 1.67 4.23 1.69 1.41 6.38 2.29l3.44.71q6.38 1.21 9.39 4.29 3.05 3.05 3.05 8.18 0 6.12-4.11 9.28-4.09 3.16-12.01 3.16-2.99 0-6.37-.67-3.35-.67-6.96-2v-5.86q3.47 1.95 6.8 2.93 3.33.99 6.55.99 4.88 0 7.53-1.92 2.65-1.92 2.65-5.47 0-3.11-1.91-4.85-1.89-1.75-6.23-2.62l-3.47-.67q-6.37-1.27-9.22-3.98-2.85-2.7-2.85-7.53 0-5.58 3.92-8.8 3.95-3.21 10.86-3.21 2.96 0 6.04.54t6.29 1.61zm8.996-1.382h33.082v4.343l-26.624 32.97h27.273v4.794h-34.38v-4.343l26.624-32.97h-25.97v-4.794zm42.024 0h26.623v4.794h-20.927v12.466h20.053v4.795h-20.06v15.258h21.43v4.794h-27.13v-42.107zm35.902 0h5.725v25.58q0 6.77 2.454 9.76 2.46 2.96 7.96 2.96 5.47 0 7.93-2.96 2.46-2.99 2.46-9.76v-25.58h5.73v26.285q0 8.236-4.09 12.438-4.06 4.202-12.01 4.202-7.98 0-12.07-4.202-4.06-4.202-4.06-12.438v-26.285zm71.665 36.1v-11.31h-9.307v-4.68h14.948v18.077q-3.3 2.34-7.277 3.554-3.97 1.184-8.48 1.184-9.87 0-15.45-5.753-5.55-5.782-5.55-16.076 0-10.33 5.56-16.08 5.59-5.78 15.46-5.78 4.12 0 7.81 1.01 3.73 1.01 6.86 2.99v6.06q-3.16-2.68-6.71-4.04-3.55-1.36-7.47-1.36-7.72 0-11.62 4.31-3.86 4.31-3.86 12.86 0 8.52 3.87 12.83 3.89 4.32 11.62 4.32 3.02 0 5.39-.51 2.37-.54 4.26-1.64zm16.076-36.1h7.67l18.672 35.226v-35.23h5.528v42.1h-7.672l-18.67-35.23v35.22h-5.52v-42.1zm43.207 0h5.698v42.107h-5.698v-42.107zm42.277 1.382v5.556q-3.243-1.55-6.12-2.31-2.877-.76-5.556-.76-4.65 0-7.19 1.81-2.51 1.81-2.51 5.14 0 2.79 1.67 4.23 1.69 1.41 6.38 2.29l3.44.71q6.38 1.21 9.4 4.29 3.05 3.05 3.05 8.18 0 6.12-4.12 9.28-4.09 3.16-12.01 3.16-2.99 0-6.37-.67-3.36-.67-6.97-2v-5.86q3.47 1.95 6.8 2.93 3.33.99 6.55.99 4.88 0 7.53-1.92 2.65-1.92 2.65-5.47 0-3.11-1.91-4.85-1.89-1.75-6.23-2.62l-3.47-.67q-6.37-1.27-9.22-3.98-2.85-2.7-2.85-7.53 0-5.58 3.92-8.8 3.95-3.21 10.86-3.21 2.97 0 6.04.54t6.29 1.61z"
     style="-inkscape-font-specification:'Frutiger 45 Light'"
     font-size="57.761"
     font-family="Frutiger 45 Light"
     id="path4" />
  <path
     sodipodi:type="star"
     style="fill:#ff0000;fill-rule:evenodd;stroke:#000000;stroke-width:1px;stroke-linecap:butt;stroke-linejoin:miter;stroke-opacity:1"
     id="path3361"
     sodipodi:sides="5"
     sodipodi:cx="926.36847"
     sodipodi:cy="279.27759"
     sodipodi:r1="101.41369"
     sodipodi:r2="50.706844"
     sodipodi:arg1="0.50284321"
     sodipodi:arg2="1.1311617"
     inkscape:flatsided="false"
     inkscape:rounded="0"
     inkscape:randomized="0"
     d="m 1015.2288,328.15075 -67.27905,-2.98817 -40.60308,53.7288 -17.94844,-64.90953 -63.64616,-22.01271 56.18625,-37.12813 1.26759,-67.3334 52.67346,41.96308 64.42953,-19.60162 -23.63223,63.06274 z"
     inkscape:transform-center-x="5.8780582"
     inkscape:transform-center-y="3.9219048" />
  <path
     sodipodi:type="star"
     style="fill:#803300;fill-rule:evenodd;stroke:#000000;stroke-width:1px;stroke-linecap:butt;stroke-linejoin:miter;stroke-opacity:1"
     id="path3363"
     sodipodi:sides="5"
     sodipodi:cx="1261.816"
     sodipodi:cy="512.53583"
     sodipodi:r1="108.85385"
     sodipodi:r2="54.426926"
     sodipodi:arg1="-1.5707963"
     sodipodi:arg2="-0.9424778"
     inkscape:flatsided="false"
     inkscape:rounded="0"
     inkscape:randomized="0"
     d="m 1261.816,403.68198 31.9914,64.82154 71.5348,10.39462 -51.7631,50.45653 12.2196,71.24577 -63.9827,-33.63769 -63.9827,33.63769 12.2197,-71.24577 -51.7631,-50.45654 71.5348,-10.39461 z"
     inkscape:transform-center-y="-10.394618" />
  <path
     sodipodi:type="star"
     style="fill:#ffff00;fill-rule:evenodd;stroke:#000000;stroke-width:1px;stroke-linecap:butt;stroke-linejoin:miter;stroke-opacity:1"
     id="path3365"
     sodipodi:sides="5"
     sodipodi:cx="1184.0634"
     sodipodi:cy="252.61951"
     sodipodi:r1="103.72321"
     sodipodi:r2="51.861607"
     sodipodi:arg1="-0.17219081"
     sodipodi:arg2="0.45612772"
     inkscape:flatsided="false"
     inkscape:rounded="0"
     inkscape:randomized="0"
     d="m 1286.2527,234.84745 -55.6298,40.6158 1.9209,68.85222 -55.8184,-40.35612 -64.8888,23.10343 21.1321,-65.55724 -42.0244,-54.57352 68.8788,-0.16049 38.9163,-56.83172 21.4373,65.45806 z"
     inkscape:transform-center-x="-4.535136"
     inkscape:transform-center-y="-5.4918676" />
  <path
     sodipodi:type="star"
     style="fill:#ac9d93;fill-rule:evenodd;stroke:#000000;stroke-width:1px;stroke-linecap:butt;stroke-linejoin:miter;stroke-opacity:1"
     id="path3367"
     sodipodi:sides="5"
     sodipodi:cx="1008.5642"
     sodipodi:cy="690.25641"
     sodipodi:r1="77.752747"
     sodipodi:r2="38.876373"
     sodipodi:arg1="3.1415927"
     sodipodi:arg2="3.7699112"
     inkscape:flatsided="false"
     inkscape:rounded="0"
     inkscape:randomized="0"
     d="m 930.81146,690.25641 46.3011,-22.85096 7.42473,-51.0963 36.04041,36.97363 50.8898,-8.72829 -24.0269,45.70192 24.0269,45.70192 -50.8898,-8.72829 -36.04041,36.97362 -7.42473,-51.09629 z"
     inkscape:transform-center-x="7.4247269" />
  <path
     sodipodi:type="star"
     style="fill:#008000;fill-rule:evenodd;stroke:#000000;stroke-width:1px;stroke-linecap:butt;stroke-linejoin:miter;stroke-opacity:1"
     id="path3369"
     sodipodi:sides="5"
     sodipodi:cx="846.39423"
     sodipodi:cy="528.08636"
     sodipodi:r1="95.524803"
     sodipodi:r2="47.762402"
     sodipodi:arg1="0"
     sodipodi:arg2="0.62831853"
     inkscape:flatsided="false"
     inkscape:rounded="0"
     inkscape:randomized="0"
     d="m 941.91903,528.08636 -56.88421,28.07404 -9.12181,62.77545 -44.27818,-45.42474 -62.52179,10.72333 29.51878,-56.14808 -29.51878,-56.14807 62.52179,10.72333 44.27818,-45.42474 9.12181,62.77545 z"
     inkscape:transform-center-x="-9.1218073" />
  <path
     sodipodi:type="star"
     style="fill:#800080;fill-rule:evenodd;stroke:#000000;stroke-width:1px;stroke-linecap:butt;stroke-linejoin:miter;stroke-opacity:1"
     id="path3371"
     sodipodi:sides="5"
     sodipodi:cx="104.41083"
     sodipodi:cy="179.30975"
     sodipodi:r1="61.443851"
     sodipodi:r2="30.721926"
     sodipodi:arg1="0.86217005"
     sodipodi:arg2="1.4904886"
     inkscape:flatsided="false"
     inkscape:rounded="0"
     inkscape:randomized="0"
     d="m 144.39796,225.9614 -37.52258,-16.02874 -34.476205,21.82327 3.649124,-40.63924 -31.40889,-26.04507 39.777855,-9.08769 15.064449,-37.92 20.934937,35.02274 40.71924,2.60922 -26.83935,30.73293 z"
     inkscape:transform-center-x="1.5231802"
     inkscape:transform-center-y="-4.3998251" />
  <path
     sodipodi:type="spiral"
     style="fill:#916f6f;fill-rule:evenodd;stroke:#000000;stroke-width:1px;stroke-linecap:butt;stroke-linejoin:miter;stroke-opacity:1"
     id="path3373"
     sodipodi:cx="113.29686"
     sodipodi:cy="448.11212"
     sodipodi:expansion="1"
     sodipodi:revolution="3"
     sodipodi:radius="105.60925"
     sodipodi:argument="-18.461237"
     sodipodi:t0="0"
     d="m 113.29686,448.11212 c 4.90084,2.00489 -0.28465,7.59539 -3.33226,8.14553 -8.25884,1.49085 -13.53171,-7.67729 -12.958792,-14.81005 1.024815,-12.75884 14.589002,-19.89139 26.287842,-17.77206 17.16852,3.11022 26.38466,21.57464 22.58531,37.76563 -5.06393,21.58006 -28.5839,32.93156 -49.243415,27.39858 -25.997888,-6.96269 -39.50552,-35.60381 -32.211842,-60.72121 8.833622,-30.42053 42.629587,-46.09503 72.198997,-37.0251 34.84653,10.6886 52.69429,49.65898 41.83837,83.67679 -12.5336,39.2749 -56.69081,59.30005 -95.154578,46.65163 C 39.60152,507.04992 17.396129,457.69751 31.841599,414.78949 48.047234,366.65318 102.60074,342.26551 149.95175,358.51134 c 52.5686,18.03595 79.14009,77.79487 61.09142,129.58794" />
  <path
     sodipodi:type="spiral"
     style="fill:#ff00ff;fill-rule:evenodd;stroke:#000000;stroke-width:1px;stroke-linecap:butt;stroke-linejoin:miter;stroke-opacity:1"
     id="path3375"
     sodipodi:cx="430.97238"
     sodipodi:cy="274.83456"
     sodipodi:expansion="1"
     sodipodi:revolution="3"
     sodipodi:radius="102.33411"
     sodipodi:argument="-21.517792"
     sodipodi:t0="0"
     d="m 430.97238,274.83456 c -4.56669,-2.33904 0.89994,-7.30981 3.88765,-7.59014 8.09649,-0.75969 12.43282,8.526 11.29264,15.36543 -2.03951,12.23414 -15.72257,18.00418 -26.84322,14.99515 -16.32,-4.41586 -23.69841,-23.00151 -18.69765,-38.32101 6.66522,-20.41848 30.30769,-29.44248 49.7988,-22.40016 24.52757,8.86205 35.2118,37.62637 26.10266,61.27659 -11.0324,28.6436 -44.95198,40.99567 -72.75438,29.80517 -32.76418,-13.18762 -46.78863,-52.2819 -33.50767,-84.23217 15.3334,-36.88786 59.6147,-52.58768 95.70996,-37.21017 41.01374,17.47289 58.39097,66.94952 40.91267,107.18775 -19.608,45.14121 -74.28582,64.19736 -118.66554,44.61517 -49.26989,-21.73993 -70.00606,-81.62325 -48.31767,-130.14333" />
  <path
     sodipodi:type="spiral"
     style="fill:#c83737;fill-rule:evenodd;stroke:#000000;stroke-width:1px;stroke-linecap:butt;stroke-linejoin:miter;stroke-opacity:1"
     id="path3377"
     sodipodi:cx="406.5358"
     sodipodi:cy="912.4071"
     sodipodi:expansion="1"
     sodipodi:revolution="3"
     sodipodi:radius="99.075233"
     sodipodi:argument="-21.158167"
     sodipodi:t0="0"
     d="m 406.5358,912.4071 c -3.34149,-3.67563 3.30611,-6.31768 6.10914,-5.55376 7.59605,2.07017 8.36195,11.9625 4.99839,17.77206 -6.01662,10.39194 -20.38243,10.95882 -29.43497,4.443 -13.28497,-9.56223 -13.63901,-28.91888 -3.88762,-41.09788 12.99706,-16.2327 37.49698,-16.35507 52.76079,-3.33224 19.20796,16.3879 19.08976,46.09501 2.77686,64.42371 -19.75712,22.1985 -54.70429,21.83526 -76.08662,2.22147 -25.19834,-23.11417 -24.58755,-63.32057 -1.66609,-87.74953 26.46372,-28.20421 71.94153,-27.34436 99.41244,-1.11071 31.2142,29.80833 30.10433,80.56577 0.55533,111.07535 -33.14952,34.22713 -89.19242,32.86663 -122.73827,-5e-5 -37.24225,-36.48822 -35.6306,-97.82086 0.55543,-134.40118" />
  <path
     sodipodi:type="spiral"
     style="fill:#808000;fill-rule:evenodd;stroke:#000000;stroke-width:1px;stroke-linecap:butt;stroke-linejoin:miter;stroke-opacity:1"
     id="path3379"
     sodipodi:cx="155.50549"
     sodipodi:cy="656.93378"
     sodipodi:expansion="1"
     sodipodi:revolution="3"
     sodipodi:radius="131.14421"
     sodipodi:argument="-18.883442"
     sodipodi:t0="0"
     d="m 155.50549,656.93378 c 6.57159,-0.22277 3.54248,8.74846 0.37026,10.92241 -8.59652,5.89126 -19.23454,-1.81078 -22.21508,-10.1819 -5.33149,-14.97396 6.40384,-29.95545 20.73405,-33.50774 21.03015,-5.21314 40.8653,11.01266 44.80041,31.28619 5.2449,27.02144 -15.62097,51.84792 -41.83834,56.09309 -32.99189,5.3421 -62.86662,-20.22756 -67.385759,-52.3905 -5.473283,-38.95363 24.832869,-73.90591 62.942649,-78.67843 44.91106,-5.62424 84.95809,29.43734 89.9711,73.49481 5.78771,50.86609 -34.04125,96.01886 -84.04696,101.26376 -56.81967,5.95959 -107.085666,-38.64477 -112.55643,-94.59911 -6.137371,-62.7723 43.248038,-118.15685 105.15126,-123.8491 68.72431,-6.31947 129.23134,47.85111 135.14177,115.70341" />
  <path
     sodipodi:type="spiral"
     style="fill:#f4d7d7;fill-rule:evenodd;stroke:#000000;stroke-width:1px;stroke-linecap:butt;stroke-linejoin:miter;stroke-opacity:1"
     id="path3381"
     sodipodi:cx="470.9595"
     sodipodi:cy="541.41541"
     sodipodi:expansion="1"
     sodipodi:revolution="3"
     sodipodi:radius="73.979858"
     sodipodi:argument="-21.269493"
     sodipodi:t0="0"
     d="m 470.9595,541.41541 c -2.78457,-2.45043 1.92932,-4.9625 4.07277,-4.62814 5.80862,0.90609 7.1976,8.18347 5.18351,12.77367 -3.60275,8.21078 -14.21633,9.82318 -21.47457,5.73888 -10.65178,-5.99389 -12.52026,-20.32873 -6.29426,-30.17548 8.29828,-13.12417 26.46907,-15.2474 38.87638,-6.84962 15.61335,10.56774 17.99003,32.62264 7.405,47.57728 -12.81989,18.11207 -38.78367,20.7416 -56.27819,7.96037 -20.61668,-15.06224 -23.49879,-44.94934 -8.51574,-64.97909 17.29853,-23.12515 51.1181,-26.25973 73.68,-9.07111 25.63626,19.5308 29.02329,57.28903 9.62648,82.3809 -21.76029,28.14928 -63.46156,31.78875 -91.0818,10.18185 -30.66371,-23.98776 -34.55565,-69.63528 -10.73723,-99.78271" />
</svg>
