<?xml version="1.0" encoding="UTF-8" standalone="no"?>
<svg
   xmlns:osb="http://www.openswatchbook.org/uri/2009/osb"
   xmlns:dc="http://purl.org/dc/elements/1.1/"
   xmlns:cc="http://creativecommons.org/ns#"
   xmlns:rdf="http://www.w3.org/1999/02/22-rdf-syntax-ns#"
   xmlns:svg="http://www.w3.org/2000/svg"
   xmlns="http://www.w3.org/2000/svg"
   xmlns:xlink="http://www.w3.org/1999/xlink"
   xmlns:sodipodi="http://sodipodi.sourceforge.net/DTD/sodipodi-0.dtd"
   xmlns:inkscape="http://www.inkscape.org/namespaces/inkscape"
   height="212.30534mm"
   id="svg3605"
   inkscape:export-xdpi="300"
   inkscape:export-ydpi="300"
   inkscape:version="0.91 r13725"
   version="1.0"
   viewBox="0 0 58.885305 212.30535"
   width="58.885303mm"
   sodipodi:docname="logo_seite_dummy.svg">
  <metadata
     id="metadata3616">
    <rdf:RDF>
      <cc:Work
         rdf:about="">
        <dc:format>image/svg+xml</dc:format>
        <dc:type
           rdf:resource="http://purl.org/dc/dcmitype/StillImage" />
        <dc:title />
      </cc:Work>
    </rdf:RDF>
  </metadata>
  <sodipodi:namedview
     bordercolor="#666666"
     borderopacity="1"
     fit-margin-bottom="0"
     fit-margin-left="0"
     fit-margin-right="0"
     fit-margin-top="0"
     gridtolerance="10"
     guidetolerance="10"
     id="namedview3614"
     inkscape:current-layer="svg3605"
     inkscape:cx="-392.25063"
     inkscape:cy="375.69784"
     inkscape:document-units="mm"
     inkscape:pageopacity="0"
     inkscape:pageshadow="2"
     inkscape:window-height="997"
     inkscape:window-maximized="0"
     inkscape:window-width="1454"
     inkscape:window-x="0"
     inkscape:window-y="27"
     inkscape:zoom="0.4731615"
     objecttolerance="10"
     pagecolor="#ffffff"
     showgrid="false" />
  <defs
     id="defs3607">
    <linearGradient
       id="linearGradient4889"
       inkscape:collect="always">
      <stop
         id="stop4891"
         offset="0"
         style="stop-color:#008000;stop-opacity:1;" />
      <stop
         id="stop4893"
         offset="1"
         style="stop-color:#808000;stop-opacity:1" />
    </linearGradient>
    <linearGradient
       id="linearGradient4875"
       osb:paint="gradient">
      <stop
         id="stop4877"
         offset="0"
         style="stop-color:#008000;stop-opacity:1;" />
      <stop
         id="stop4879"
         offset="1"
         style="stop-color:#008000;stop-opacity:0;" />
    </linearGradient>
    <pattern
       height="6"
       id="EMFhbasepattern"
       patternUnits="userSpaceOnUse"
       width="6"
       x="0"
       y="0" />
    <linearGradient
       gradientUnits="userSpaceOnUse"
       id="linearGradient4897"
       inkscape:collect="always"
       spreadMethod="pad"
       x1="-238.04504"
       x2="-0.14858273"
       xlink:href="#linearGradient4889"
       y1="30.534634"
       y2="30.534634" />
  </defs>
  <g
     transform="matrix(0,-0.89187051,1.121239,0,0,0)"
     style="font-style:normal;font-variant:normal;font-weight:normal;font-stretch:normal;font-size:42.88837433px;line-height:125%;font-family:'Abril Fatface';-inkscape-font-specification:'Abril Fatface, Normal';text-align:start;letter-spacing:0px;word-spacing:0px;writing-mode:lr-tb;text-anchor:start;fill:url(#linearGradient4897);fill-opacity:1;stroke:none;stroke-width:1px;stroke-linecap:butt;stroke-linejoin:miter;stroke-opacity:1"
     id="text4136">
    <path
       d="m -226.29362,41.363948 q 2.14441,0 3.77417,-1.157986 1.67265,-1.157986 1.67265,-3.473958 0,-2.358861 -1.80131,-3.602624 -1.75843,-1.243763 -5.06083,-2.144419 -3.25952,-0.943544 -4.76061,-1.629758 -1.4582,-0.686214 -2.78774,-1.801312 -2.65908,-2.230195 -2.65908,-6.905028 0,-3.817065 2.70196,-6.561921 2.74486,-2.744856 7.46258,-2.744856 2.27309,0 4.71772,0.686214 2.48753,0.643326 3.08797,0.643326 0.60043,0 1.0722,-0.857768 l 0.47178,0 0.30022,8.663452 -0.68622,0 q -2.05864,-3.731289 -4.33172,-5.961484 -2.2302,-2.273084 -4.88928,-2.273084 -2.61619,0 -4.07439,1.243763 -1.45821,1.200874 -1.45821,3.259516 0,2.015754 1.71554,3.130851 1.75842,1.07221 4.28883,1.758424 2.53042,0.686214 3.30241,0.943544 0.81488,0.25733 1.97286,0.729102 1.20088,0.428884 1.92998,0.943545 0.77199,0.471772 1.58687,1.243762 0.85777,0.729103 1.32954,1.629759 1.15799,2.058642 1.15799,4.889274 0,4.631945 -2.91641,7.462577 -2.87352,2.787745 -7.59125,2.787745 -2.44463,0 -5.61837,-0.643326 -3.13085,-0.643325 -3.47396,-0.643325 -0.60044,0 -1.15799,1.286651 l -0.60043,0 -0.42889,-10.207433 0.7291,0 q 1.88709,3.731288 4.8035,6.519033 2.9593,2.787744 6.21882,2.787744 z"
       style="fill:url(#linearGradient4897);fill-opacity:1"
       id="path4143" />
    <path
       d="m -202.80755,42.264604 q -5.5326,0 -8.32034,-2.830633 -2.74486,-2.873521 -2.74486,-7.934349 0,-5.103717 3.08796,-7.805684 3.13085,-2.701968 7.93435,-2.701968 9.73566,0 9.34967,9.778549 l -12.09452,0 0,1.672647 q 0,4.203061 1.07221,6.347479 1.07221,2.144419 3.73128,2.144419 4.97506,0 6.51904,-5.318158 l 0.77199,0.128665 q -0.81488,3.087963 -2.9593,4.803498 -2.10153,1.715535 -6.34748,1.715535 z m -2.74485,-12.351852 4.4175,0 0,-2.10153 q 0,-3.473959 -0.42889,-4.717722 -0.38599,-1.286651 -1.62975,-1.286651 -1.20088,0 -1.80132,1.372428 -0.55754,1.32954 -0.55754,4.631945 l 0,2.10153 z"
       style="fill:url(#linearGradient4897);fill-opacity:1"
       id="path4145" />
    <path
       d="m -185.66828,18.461556 q -2.27309,0 -3.25952,-1.157986 -0.94354,-1.157986 -0.94354,-2.873521 0,-1.715535 1.02932,-2.830633 1.07221,-1.115098 3.21663,-1.115098 2.14442,0 3.25951,1.029321 1.1151,0.986433 1.1151,2.873521 0,1.844201 -1.07221,2.959298 -1.07221,1.115098 -3.34529,1.115098 z m -6.47615,2.959298 10.50766,0 0,19.642875 2.40174,0 0,0.771991 -12.73784,0 0,-0.771991 2.35886,0 0,-18.870884 -2.53042,0 0,-0.771991 z"
       style="fill:url(#linearGradient4897);fill-opacity:1"
       id="path4147" />
    <path
       d="m -176.25831,35.702683 0,-13.509838 -2.35886,0 0,-0.771991 2.35886,0 0,-5.5326 7.97724,-1.972866 0,7.505466 5.57549,0 0,0.771991 -5.57549,0 0,14.453382 q 0,2.015753 0.386,2.959298 0.42888,0.943544 1.71553,0.943544 1.28665,0 2.2302,-1.286651 0.98643,-1.286652 1.28665,-3.516847 l 0.7291,0.08578 q -0.34311,2.959297 -1.88709,4.717721 -1.54398,1.715535 -5.10371,1.715535 -3.55974,0 -5.44683,-1.415317 -1.88709,-1.415316 -1.88709,-5.146604 z"
       style="fill:url(#linearGradient4897);fill-opacity:1"
       id="path4149" />
    <path
       d="m -150.20228,42.264604 q -5.5326,0 -8.32034,-2.830633 -2.74486,-2.873521 -2.74486,-7.934349 0,-5.103717 3.08796,-7.805684 3.13086,-2.701968 7.93435,-2.701968 9.73566,0 9.34967,9.778549 l -12.09452,0 0,1.672647 q 0,4.203061 1.07221,6.347479 1.07221,2.144419 3.73129,2.144419 4.97505,0 6.51903,-5.318158 l 0.77199,0.128665 q -0.81488,3.087963 -2.9593,4.803498 -2.10153,1.715535 -6.34748,1.715535 z m -2.74485,-12.351852 4.4175,0 0,-2.10153 q 0,-3.473959 -0.42889,-4.717722 -0.38599,-1.286651 -1.62975,-1.286651 -1.20088,0 -1.80132,1.372428 -0.55754,1.32954 -0.55754,4.631945 l 0,2.10153 z"
       style="fill:url(#linearGradient4897);fill-opacity:1"
       id="path4151" />
    <path
       d="m -139.28183,21.420854 10.3361,0 0,3.94573 q 0.68622,-1.972865 2.10153,-3.173739 1.41532,-1.200875 4.28884,-1.200875 6.6477,0 6.6477,7.162359 l 0,12.9094 2.40175,0 0,0.771991 -12.13741,0 0,-0.771991 1.75842,0 0,-13.938721 q 0,-2.573303 -0.34311,-3.302405 -0.3431,-0.771991 -1.24376,-0.771991 -1.37243,0 -2.44464,1.801312 -1.02932,1.801312 -1.02932,4.374614 l 0,11.837191 1.8442,0 0,0.771991 -12.1803,0 0,-0.771991 2.35887,0 0,-18.870884 -2.35887,0 0,-0.771991 z"
       style="fill:url(#linearGradient4897);fill-opacity:1"
       id="path4153" />
    <path
       d="m -113.15275,9.6694393 10.50765,0 0,31.3942897 2.40175,0 0,0.771991 -12.73785,0 0,-0.771991 2.35886,0 0,-30.622299 -2.53041,0 0,-0.7719907 z"
       style="fill:url(#linearGradient4897);fill-opacity:1"
       id="path4155" />
    <path
       d="m -85.558107,33.38671 0,-3.645511 q 0,-4.160173 -0.471772,-6.047261 -0.428884,-1.929977 -2.058642,-1.929977 -0.943544,0 -1.543981,0.557549 -0.557549,0.51466 -0.814879,1.758423 -0.385996,1.929977 -0.385996,5.875707 l 0,3.345294 q 0,4.674832 0.257331,5.618377 0.300218,0.943544 0.600437,1.543981 0.471772,1.029321 1.8442,1.029321 1.672646,0 2.187307,-1.929977 0.385995,-1.372428 0.385995,-6.175926 z m -2.659079,8.877894 q -5.361047,0 -8.105903,-2.744856 -2.744856,-2.744856 -2.744856,-7.848573 0,-5.146605 2.91641,-7.891461 2.959298,-2.787744 8.277456,-2.787744 5.318159,0 7.934349,2.573303 2.616191,2.530414 2.616191,7.762795 0,10.936536 -10.893647,10.936536 z"
       style="fill:url(#linearGradient4897);fill-opacity:1"
       id="path4157" />
    <path
       d="m -58.925765,19.190658 1.200874,-0.729102 q 0.257331,-1.32954 -1.029321,-1.32954 -1.8442,0 -1.8442,2.830633 0,1.115098 0.300219,2.573303 3.259516,2.187307 3.259516,5.618377 0,3.388181 -2.35886,5.27527 -2.358861,1.887088 -6.390368,1.887088 -1.672647,0 -3.473958,-0.343107 -1.887089,1.200875 -1.887089,1.801312 0,0.600437 2.744856,0.600437 l 4.374614,0 q 9.735661,0 9.735661,6.990805 0,3.774177 -2.959298,5.961484 -2.916409,2.230196 -9.135223,2.230196 -10.593429,0 -10.593429,-4.589056 0,-2.487526 3.302405,-3.43107 l 2.573303,1.157986 q -0.343107,1.243763 -0.343107,2.35886 0,3.688401 5.489711,3.688401 3.345294,0 5.146605,-1.243763 1.801312,-1.243763 1.801312,-3.087963 0,-1.8442 -1.115098,-2.487526 -1.072209,-0.600437 -4.331725,-0.600437 l -4.160173,0 q -3.473958,0 -4.975051,-1.157986 -1.501093,-1.157986 -1.501093,-2.830633 0,-1.715535 1.072209,-2.830633 1.072209,-1.157986 3.817065,-2.830632 -4.975051,-1.415317 -4.975051,-6.519033 0,-3.216628 2.315972,-5.189494 2.315972,-1.972865 6.947917,-1.972865 2.787744,0 4.760609,1.072209 -0.25733,-1.157986 -0.25733,-2.10153 0,-2.401749 1.286651,-3.473958 1.286652,-1.07221 2.873521,-1.07221 1.58687,0 2.530415,0.857768 0.986432,0.814879 0.986432,2.273084 0,1.458205 -0.771991,2.187307 -0.77199,0.686214 -1.887088,0.686214 -1.072209,0 -1.801312,-0.557549 -0.686214,-0.600437 -0.729102,-1.672647 z m -9.092335,8.020126 0,2.315973 q 0,2.873521 0.471772,3.902842 0.51466,1.029321 1.501093,1.029321 1.029321,0 1.458204,-0.986433 0.471773,-1.029321 0.471773,-4.160172 l 0,-2.101531 q 0,-3.345293 -0.428884,-4.374614 -0.428884,-1.072209 -1.458205,-1.072209 -0.986432,0 -1.501093,1.115098 -0.51466,1.072209 -0.51466,4.331725 z"
       style="fill:url(#linearGradient4897);fill-opacity:1"
       id="path4159" />
    <path
       d="m -41.161943,33.38671 0,-3.645511 q 0,-4.160173 -0.471772,-6.047261 -0.428884,-1.929977 -2.058642,-1.929977 -0.943544,0 -1.543981,0.557549 -0.557549,0.51466 -0.814879,1.758423 -0.385996,1.929977 -0.385996,5.875707 l 0,3.345294 q 0,4.674832 0.25733,5.618377 0.300219,0.943544 0.600438,1.543981 0.471772,1.029321 1.8442,1.029321 1.672646,0 2.187307,-1.929977 0.385995,-1.372428 0.385995,-6.175926 z m -2.659079,8.877894 q -5.361047,0 -8.105903,-2.744856 -2.744856,-2.744856 -2.744856,-7.848573 0,-5.146605 2.91641,-7.891461 2.959298,-2.787744 8.277456,-2.787744 5.318158,0 7.934349,2.573303 2.616191,2.530414 2.616191,7.762795 0,10.936536 -10.893647,10.936536 z"
       style="fill:url(#linearGradient4897);fill-opacity:1"
       id="path4161" />
    <path
       d="m -18.831834,28.068552 q -1.8442,0 -2.787744,-1.072209 -0.900656,-1.115098 -0.900656,-2.65908 0,-1.58687 0.943545,-2.659079 0.986432,-1.072209 2.744855,-1.072209 1.758424,0 2.787745,0.900656 1.029321,0.900655 1.029321,2.701967 0,1.801312 -0.986433,2.830633 -0.943544,1.029321 -2.830633,1.029321 z m 0,14.196052 q -1.8442,0 -2.787744,-1.07221 -0.900656,-1.115097 -0.900656,-2.659079 0,-1.58687 0.943545,-2.659079 0.986432,-1.072209 2.744855,-1.072209 1.758424,0 2.787745,0.900656 1.029321,0.900655 1.029321,2.701967 0,1.801312 -0.986433,2.830633 -0.943544,1.029321 -2.830633,1.029321 z"
       style="fill:url(#linearGradient4897);fill-opacity:1"
       id="path4163" />
    <path
       d="m -3.4938759,14.987598 q 1.6297582,2.916409 2.4875257,6.347479 0.85776747,3.43107 0.85776747,7.762796 0,4.288837 -1.50109307,8.749228 -1.5010931,4.460391 -4.7177212,7.548354 -3.2166281,3.130851 -7.548354,3.259517 l 0,-0.857768 q 2.444637,-0.08578 3.473958,-1.672647 1.1579865,-1.801311 1.3724284,-4.031507 0.3002186,-3.045074 0.3002186,-7.677019 l 0,-12.308963 q 0,-8.148791 -1.32954,-10.464763 -1.243762,-2.1444192 -3.817065,-2.2301959 l 0,-0.9006559 q 3.388182,0.042888 6.0901493,1.8013118 2.7448559,1.758423 4.3317258,4.674833 z"
       style="fill:url(#linearGradient4897);fill-opacity:1"
       id="path4165" />
  </g>
</svg>
