<?xml version="1.0" encoding="UTF-8" standalone="no"?>
<svg
   xmlns:ooo="http://xml.openoffice.org/svg/export"
   xmlns:dc="http://purl.org/dc/elements/1.1/"
   xmlns:cc="http://creativecommons.org/ns#"
   xmlns:rdf="http://www.w3.org/1999/02/22-rdf-syntax-ns#"
   xmlns:svg="http://www.w3.org/2000/svg"
   xmlns="http://www.w3.org/2000/svg"
   xmlns:sodipodi="http://sodipodi.sourceforge.net/DTD/sodipodi-0.dtd"
   xmlns:inkscape="http://www.inkscape.org/namespaces/inkscape"
   clip-path="url(#presentation_clip_path)"
   height="96.147102"
   id="svg2"
   inkscape:export-xdpi="299.54102"
   inkscape:export-ydpi="299.54102"
   inkscape:version="0.91 r13725"
   preserveAspectRatio="xMidYMid"
   style="fill-rule:evenodd;stroke-width:28.22200012;stroke-linejoin:round"
   version="1.2"
   viewBox="0 0 16011.91 2713.4849"
   width="567.35114"
   xml:space="preserve"
   sodipodi:docname="logo_top_dummy.svg"><metadata
     id="metadata221"><rdf:RDF><cc:Work
         rdf:about=""><dc:format>image/svg+xml</dc:format><dc:type
           rdf:resource="http://purl.org/dc/dcmitype/StillImage" /><dc:title /></cc:Work></rdf:RDF></metadata><sodipodi:namedview
     bordercolor="#666666"
     borderopacity="1"
     fit-margin-bottom="0"
     fit-margin-left="0"
     fit-margin-right="0"
     fit-margin-top="0"
     gridtolerance="10"
     guidetolerance="10"
     id="namedview219"
     inkscape:current-layer="g49"
     inkscape:cx="-41.976742"
     inkscape:cy="-95.414015"
     inkscape:document-units="cm"
     inkscape:pageopacity="0"
     inkscape:pageshadow="2"
     inkscape:snap-global="true"
     inkscape:snap-grids="false"
     inkscape:snap-to-guides="false"
     inkscape:window-height="1136"
     inkscape:window-maximized="1"
     inkscape:window-width="1920"
     inkscape:window-x="0"
     inkscape:window-y="27"
     inkscape:zoom="1.6421381"
     objecttolerance="10"
     pagecolor="#ffffff"
     showgrid="true"
     showguides="false"><inkscape:grid
       empspacing="5"
       enabled="true"
       id="grid3198"
       originx="-2466.5516"
       originy="-13299.528"
       snapvisiblegridlinesonly="true"
       type="xygrid"
       visible="true" /></sodipodi:namedview><defs
     class="ClipPathGroup"
     id="defs4"><clipPath
       clipPathUnits="userSpaceOnUse"
       id="presentation_clip_path"><rect
         height="29700"
         id="rect7"
         width="21000"
         x="0"
         y="0" /></clipPath><g
       id="bullet-char-template(8211)-2"
       transform="scale(4.8828125e-4,-4.8828125e-4)"><path
         d="m -4,459 1139,0 0,147 -1139,0 0,-147 z"
         id="path3535"
         inkscape:connector-curvature="0" /></g><g
       id="bullet-char-template(8226)-9"
       transform="scale(4.8828125e-4,-4.8828125e-4)"><path
         d="m 346,457 c -73,0 -137,26 -191,78 -54,51 -81,114 -81,188 0,73 27,136 81,188 54,52 118,78 191,78 73,0 134,-26 185,-79 51,-51 77,-114 77,-187 0,-75 -25,-137 -76,-188 -50,-52 -112,-78 -186,-78 z"
         id="path3532"
         inkscape:connector-curvature="0" /></g><g
       id="bullet-char-template(9679)-6"
       transform="scale(4.8828125e-4,-4.8828125e-4)"><path
         d="M 813,0 C 632,0 489,54 383,161 276,268 223,411 223,592 c 0,181 53,324 160,431 106,107 249,161 430,161 179,0 323,-54 432,-161 108,-107 162,-251 162,-431 0,-180 -54,-324 -162,-431 C 1136,54 992,0 813,0 Z"
         id="path3529"
         inkscape:connector-curvature="0" /></g><g
       id="bullet-char-template(10004)-1"
       transform="scale(4.8828125e-4,-4.8828125e-4)"><path
         d="M 285,-33 C 182,-33 111,30 74,156 52,228 41,333 41,471 c 0,78 14,145 41,201 34,71 87,106 158,106 53,0 88,-31 106,-94 l 23,-176 c 8,-64 28,-97 59,-98 l 735,706 c 11,11 33,17 66,17 42,0 63,-15 63,-46 l 0,-122 c 0,-36 -10,-64 -30,-84 L 442,47 C 390,-6 338,-33 285,-33 Z"
         id="path3526"
         inkscape:connector-curvature="0" /></g><g
       id="bullet-char-template(10007)-3"
       transform="scale(4.8828125e-4,-4.8828125e-4)"><path
         d="m 0,-2 c -7,16 -16,29 -25,39 l 381,530 c -94,256 -141,385 -141,387 0,25 13,38 40,38 9,0 21,-2 34,-5 21,4 42,12 65,25 l 27,-13 111,-251 280,301 64,-25 24,25 c 21,-10 41,-24 62,-43 C 886,937 835,863 770,784 769,783 710,716 594,584 L 774,223 c 0,-27 -21,-55 -63,-84 l 16,-20 C 717,90 699,76 672,76 641,76 570,178 457,381 L 164,-76 c -22,-34 -53,-51 -92,-51 -42,0 -63,17 -64,51 -7,9 -10,24 -10,44 0,9 1,19 2,30 z"
         id="path3523"
         inkscape:connector-curvature="0" /></g><g
       id="bullet-char-template(10132)-6"
       transform="scale(4.8828125e-4,-4.8828125e-4)"><path
         d="M 2015,739 1276,0 717,0 l 543,543 -1086,0 0,393 1086,0 -543,545 557,0 741,-742 z"
         id="path3520"
         inkscape:connector-curvature="0" /></g><g
       id="bullet-char-template(10146)-0"
       transform="scale(4.8828125e-4,-4.8828125e-4)"><path
         d="M 174,0 602,739 174,1481 1456,739 174,0 Z m 1184,739 -1049,607 350,-607 699,0 z"
         id="path3517"
         inkscape:connector-curvature="0" /></g><g
       id="bullet-char-template(57354)-7"
       transform="scale(4.8828125e-4,-4.8828125e-4)"><path
         d="m 8,1128 1129,0 L 1137,0 8,0 8,1128 Z"
         id="path3514"
         inkscape:connector-curvature="0" /></g><g
       id="bullet-char-template(57356)-0"
       transform="scale(4.8828125e-4,-4.8828125e-4)"><path
         d="M 580,1141 1163,571 580,0 -4,571 580,1141 Z"
         id="path3511"
         inkscape:connector-curvature="0" /></g><g
       id="g3506"
       ooo:id-list="id3"
       ooo:slide="id1" /><clipPath
       clipPathUnits="userSpaceOnUse"
       id="presentation_clip_path-1"><rect
         height="29700"
         id="rect3502"
         width="21000"
         x="0"
         y="0" /></clipPath></defs><defs
     class="TextShapeIndex"
     id="defs9"><g
       id="g11"
       ooo:id-list="id3"
       ooo:slide="id1" /></defs><defs
     class="EmbeddedBulletChars"
     id="defs13"><g
       id="bullet-char-template(57356)"
       transform="scale(4.8828125e-4,-4.8828125e-4)"><path
         d="M 580,1141 1163,571 580,0 -4,571 580,1141 Z"
         id="path16"
         inkscape:connector-curvature="0" /></g><g
       id="bullet-char-template(57354)"
       transform="scale(4.8828125e-4,-4.8828125e-4)"><path
         d="m 8,1128 1129,0 L 1137,0 8,0 8,1128 Z"
         id="path19"
         inkscape:connector-curvature="0" /></g><g
       id="bullet-char-template(10146)"
       transform="scale(4.8828125e-4,-4.8828125e-4)"><path
         d="M 174,0 602,739 174,1481 1456,739 174,0 Z m 1184,739 -1049,607 350,-607 699,0 z"
         id="path22"
         inkscape:connector-curvature="0" /></g><g
       id="bullet-char-template(10132)"
       transform="scale(4.8828125e-4,-4.8828125e-4)"><path
         d="M 2015,739 1276,0 717,0 l 543,543 -1086,0 0,393 1086,0 -543,545 557,0 741,-742 z"
         id="path25"
         inkscape:connector-curvature="0" /></g><g
       id="bullet-char-template(10007)"
       transform="scale(4.8828125e-4,-4.8828125e-4)"><path
         d="m 0,-2 c -7,16 -16,29 -25,39 l 381,530 c -94,256 -141,385 -141,387 0,25 13,38 40,38 9,0 21,-2 34,-5 21,4 42,12 65,25 l 27,-13 111,-251 280,301 64,-25 24,25 c 21,-10 41,-24 62,-43 C 886,937 835,863 770,784 769,783 710,716 594,584 L 774,223 c 0,-27 -21,-55 -63,-84 l 16,-20 C 717,90 699,76 672,76 641,76 570,178 457,381 L 164,-76 c -22,-34 -53,-51 -92,-51 -42,0 -63,17 -64,51 -7,9 -10,24 -10,44 0,9 1,19 2,30 z"
         id="path28"
         inkscape:connector-curvature="0" /></g><g
       id="bullet-char-template(10004)"
       transform="scale(4.8828125e-4,-4.8828125e-4)"><path
         d="M 285,-33 C 182,-33 111,30 74,156 52,228 41,333 41,471 c 0,78 14,145 41,201 34,71 87,106 158,106 53,0 88,-31 106,-94 l 23,-176 c 8,-64 28,-97 59,-98 l 735,706 c 11,11 33,17 66,17 42,0 63,-15 63,-46 l 0,-122 c 0,-36 -10,-64 -30,-84 L 442,47 C 390,-6 338,-33 285,-33 Z"
         id="path31"
         inkscape:connector-curvature="0" /></g><g
       id="bullet-char-template(9679)"
       transform="scale(4.8828125e-4,-4.8828125e-4)"><path
         d="M 813,0 C 632,0 489,54 383,161 276,268 223,411 223,592 c 0,181 53,324 160,431 106,107 249,161 430,161 179,0 323,-54 432,-161 108,-107 162,-251 162,-431 0,-180 -54,-324 -162,-431 C 1136,54 992,0 813,0 Z"
         id="path34"
         inkscape:connector-curvature="0" /></g><g
       id="bullet-char-template(8226)"
       transform="scale(4.8828125e-4,-4.8828125e-4)"><path
         d="m 346,457 c -73,0 -137,26 -191,78 -54,51 -81,114 -81,188 0,73 27,136 81,188 54,52 118,78 191,78 73,0 134,-26 185,-79 51,-51 77,-114 77,-187 0,-75 -25,-137 -76,-188 -50,-52 -112,-78 -186,-78 z"
         id="path37"
         inkscape:connector-curvature="0" /></g><g
       id="bullet-char-template(8211)"
       transform="scale(4.8828125e-4,-4.8828125e-4)"><path
         d="m -4,459 1139,0 0,147 -1139,0 0,-147 z"
         id="path40"
         inkscape:connector-curvature="0" /></g></defs><defs
     class="TextEmbeddedBitmaps"
     id="defs42" /><g
     id="g44"
     transform="translate(-2466.5517,-13686.987)"><g
       class="Master_Slide"
       id="id2"><g
         class="Background"
         id="bg-id2" /><g
         class="BackgroundObjects"
         id="bo-id2" /></g></g><g
     class="SlideGroup"
     id="g49"
     transform="translate(-2466.5517,-13686.987)"><g
       style="font-style:normal;font-variant:normal;font-weight:normal;font-stretch:normal;font-size:1128.88891602px;line-height:125%;font-family:'Alfa Slab One';-inkscape-font-specification:'Alfa Slab One, Normal';text-align:start;letter-spacing:0px;word-spacing:0px;writing-mode:lr-tb;text-anchor:start;fill:#cd4800;fill-opacity:1;stroke:#000800;stroke-width:1px;stroke-linecap:butt;stroke-linejoin:miter;stroke-opacity:1"
       id="text4397"><path
         d="m 2814.2494,15312.051 -106.1156,0 0,92.569 -224.6488,0 0,-277.707 711.2,0 0,162.56 -346.5689,530.578 139.9822,0 0,-92.569 224.6489,0 0,277.706 -746.1956,0 0,-162.56 347.6978,-530.577 z"
         style=""
         id="path4193" /><path
         d="m 3578.8071,15361.722 q 86.9244,0 144.4977,25.964 57.5734,24.836 92.5689,65.476 34.9956,40.64 48.5423,92.569 14.6755,51.929 14.6755,104.986 l 0,81.28 -365.76,0 0,6.774 q 0,40.64 22.5778,60.96 23.7067,20.32 84.6667,20.32 74.5066,0 136.5955,-11.289 62.0889,-11.289 102.7289,-24.836 l 0,180.622 q -20.32,10.16 -47.4133,20.32 -25.9645,9.032 -59.8311,18.063 -33.8667,7.902 -76.7645,12.417 -42.8978,5.645 -97.0844,5.645 -77.8934,0 -141.1111,-20.32 -63.2178,-20.32 -108.3734,-60.96 -44.0267,-41.769 -67.7333,-102.729 -23.7067,-62.089 -23.7067,-145.627 0,-82.409 23.7067,-144.497 23.7066,-62.089 67.7333,-102.729 45.1556,-41.769 108.3734,-62.089 63.2177,-20.32 141.1111,-20.32 z m 0,200.942 q -32.7378,0 -49.6711,16.933 -15.8045,16.934 -15.8045,55.316 l 0,6.773 130.9511,0 0,-6.773 q 0,-38.382 -16.9333,-55.316 -15.8045,-16.933 -48.5422,-16.933 z"
         style=""
         id="path4195" /><path
         d="m 4193.0638,15747.802 q 0,38.382 15.8045,55.315 16.9333,16.934 49.6711,16.934 32.7378,0 48.5422,-16.934 16.9333,-16.933 16.9333,-55.315 l 0,-185.138 -60.96,0 0,-185.138 320.6045,0 0,442.525 49.6711,0 0,185.137 -309.3156,0 0,-76.764 q -13.5466,14.676 -31.6089,30.48 -16.9333,15.804 -39.5111,29.351 -22.5777,13.547 -51.9289,22.578 -29.3511,10.16 -67.7333,10.16 -92.5689,0 -146.7556,-65.476 -53.0577,-66.604 -53.0577,-207.715 l 0,-185.138 -49.6711,0 0,-185.138 309.3155,0 0,370.276 z"
         style=""
         id="path4197" /><path
         d="m 5064.319,15377.526 309.3156,0 0,185.138 -49.6712,0 0,397.369 q 0,83.538 -21.4488,142.24 -20.32,59.831 -62.0889,97.084 -41.7689,37.254 -102.7289,54.187 -60.96,18.062 -139.9823,18.062 -74.5066,0 -151.2711,-11.289 -76.7644,-11.289 -118.5333,-25.964 l 0,-185.138 q 47.4133,9.031 102.7289,14.676 56.4444,6.773 111.76,6.773 66.6044,0 93.6978,-21.449 28.2222,-20.32 28.2222,-72.249 l 0,-48.542 q -10.16,13.547 -27.0933,30.48 -16.9334,15.804 -39.5112,29.351 -21.4488,13.547 -49.6711,22.578 -27.0933,10.16 -58.7022,10.16 -117.4044,0 -174.9778,-85.796 -56.4444,-86.924 -56.4444,-243.84 0,-156.915 56.4444,-242.711 57.5734,-86.924 174.9778,-86.924 31.6089,0 58.7022,10.16 28.2223,9.031 49.6711,22.578 22.5778,13.546 39.5112,30.48 16.9333,15.804 27.0933,29.351 l 0,-76.765 z m -130.9511,370.276 q 0,38.382 15.8044,55.315 16.9334,16.934 49.6711,16.934 32.7378,0 48.5423,-16.934 16.9333,-16.933 16.9333,-55.315 l 0,-112.889 q 0,-38.382 -16.9333,-55.316 -15.8045,-16.933 -48.5423,-16.933 -32.7377,0 -49.6711,16.933 -15.8044,16.934 -15.8044,55.316 l 0,112.889 z"
         style=""
         id="path4199" /><path
         d="m 5776.2247,15820.051 49.6711,0 0,-185.138 q 0,-38.382 -16.9333,-55.316 -15.8045,-16.933 -48.5423,-16.933 -32.7377,0 -49.6711,16.933 -15.8044,16.934 -15.8044,55.316 l 0,185.138 49.6711,0 0,185.137 -358.9867,0 0,-185.137 49.6711,0 0,-257.387 -49.6711,0 0,-185.138 309.3156,0 0,76.765 q 13.5466,-13.547 30.48,-29.351 16.9333,-16.934 39.5111,-30.48 23.7067,-13.547 53.0578,-22.578 29.3511,-10.16 67.7333,-10.16 92.5689,0 145.6267,66.604 54.1866,65.476 54.1866,206.587 l 0,185.138 49.6712,0 0,185.137 -358.9867,0 0,-185.137 z"
         style=""
         id="path4201" /><path
         d="m 6473.3135,15820.051 49.6712,0 0,185.137 -358.9867,0 0,-185.137 49.6711,0 0,-257.387 -49.6711,0 0,-185.138 309.3155,0 0,442.525 z m -232.5511,-693.138 207.7156,0 0,188.524 -207.7156,0 0,-188.524 z"
         style=""
         id="path4203" /><path
         d="m 6573.4496,15829.082 q 84.6667,12.418 138.8533,16.933 54.1867,3.387 85.7956,3.387 49.6711,0 65.4755,-7.902 15.8045,-7.903 15.8045,-21.449 0,-14.676 -16.9333,-21.449 -16.9334,-7.902 -69.9912,-15.805 -117.4044,-15.804 -185.1377,-67.733 -66.6045,-51.929 -66.6045,-146.756 0,-44.026 15.8045,-81.28 15.8044,-38.382 50.8,-65.475 34.9955,-28.222 89.1822,-44.027 55.3155,-15.804 132.08,-15.804 83.5378,0 150.1422,10.16 67.7333,9.031 111.76,23.706 l 0,152.4 q -54.1867,-6.773 -109.5022,-11.288 -55.3156,-4.516 -104.9867,-4.516 -47.4133,0 -67.7333,6.773 -19.1911,6.774 -19.1911,20.32 0,6.774 3.3866,12.418 3.3867,4.516 12.4178,9.031 10.16,3.387 27.0934,6.774 16.9333,2.257 42.8977,4.515 130.9511,12.418 193.04,64.347 62.0889,51.929 62.0889,147.884 0,100.471 -68.8622,159.174 -68.8622,57.573 -215.6178,57.573 -85.7955,0 -156.9155,-10.16 -69.9912,-10.16 -115.1467,-24.836 l 0,-156.915 z"
         style=""
         id="path4205" /></g><path
       d="m 11318.338,15835.045 490.715,1212.163 -1205.6,-506.626 -1001.196,841.276 109.2793,-1303.149 -1109.488,-692.226 1273.1378,-298.764 315.4949,-1269.096 677.563,1118.503 1304.475,-92.118 z"
       id="path4401"
       inkscape:flatsided="false"
       inkscape:randomized="0"
       inkscape:rounded="0"
       inkscape:transform-center-x="-38.51625"
       inkscape:transform-center-y="44.048918"
       sodipodi:arg1="0.16366058"
       sodipodi:arg2="0.79197911"
       sodipodi:cx="10475.352"
       sodipodi:cy="15695.836"
       sodipodi:r1="854.40344"
       sodipodi:r2="1898.6743"
       sodipodi:sides="5"
       sodipodi:type="star"
       style="fill:none;fill-opacity:1;fill-rule:evenodd;stroke:#cb0000;stroke-width:100;stroke-linejoin:round;stroke-miterlimit:4;stroke-dasharray:none;stroke-opacity:1"
       transform="matrix(0.43784315,0,0,0.46078618,3278.5854,7887.6846)" /><path
       d="m 11558.087,14922.454 -579.164,87.046 -186.997,555.014 -261.757,-523.919 -585.6357,-6.336 417.3897,-410.846 -174.946,-558.93 519.719,270.003 477.513,-339.102 -96.187,577.717 z"
       id="path4403"
       inkscape:flatsided="false"
       inkscape:randomized="0"
       inkscape:rounded="0"
       inkscape:transform-center-x="-18.163887"
       inkscape:transform-center-y="63.730186"
       sodipodi:arg1="0.24497866"
       sodipodi:arg2="0.87329719"
       sodipodi:cx="10733.146"
       sodipodi:cy="14716.219"
       sodipodi:r1="850.32959"
       sodipodi:r2="382.64828"
       sodipodi:sides="5"
       sodipodi:type="star"
       style="fill:none;fill-opacity:1;fill-rule:evenodd;stroke:#00c3cb;stroke-width:100.00000763;stroke-linejoin:round;stroke-miterlimit:4;stroke-dasharray:none;stroke-opacity:1" /><path
       d="m 14153.214,15541.161 -673.757,-78.734 -377.677,563.478 -133.322,-665.111 -652.608,-185.068 591.359,-332.328 -25.656,-677.856 498.802,459.722 636.751,-233.87 -283.083,616.45 z"
       id="path4405"
       inkscape:flatsided="false"
       inkscape:randomized="0"
       inkscape:rounded="0"
       inkscape:transform-center-x="59.368482"
       inkscape:transform-center-y="35.778061"
       sodipodi:arg1="0.51048832"
       sodipodi:arg2="1.1388069"
       sodipodi:cx="13293.9"
       sodipodi:cy="15059.945"
       sodipodi:r1="984.87958"
       sodipodi:r2="443.19583"
       sodipodi:sides="5"
       sodipodi:type="star"
       style="fill:none;fill-opacity:1;fill-rule:evenodd;stroke:#cb0000;stroke-width:100.00000763;stroke-linejoin:round;stroke-miterlimit:4;stroke-dasharray:none;stroke-opacity:0.62154698" /><path
       d="m 16060.888,14956.827 -584.386,-295.388 -529.624,385.045 100.346,-647.064 -529.862,-384.717 646.403,-104.52 202.151,-622.812 299.153,582.467 654.799,-0.202 -461.516,464.503 z"
       id="path4407"
       inkscape:flatsided="false"
       inkscape:randomized="0"
       inkscape:rounded="0"
       inkscape:transform-center-x="23.567499"
       inkscape:transform-center-y="-68.076813"
       sodipodi:arg1="0.86217005"
       sodipodi:arg2="1.4904886"
       sodipodi:cx="15442.183"
       sodipodi:cy="14235.004"
       sodipodi:r1="950.69733"
       sodipodi:r2="427.81381"
       sodipodi:sides="5"
       sodipodi:type="star"
       style="fill:none;fill-opacity:1;fill-rule:evenodd;stroke:#33008f;stroke-width:100.00000763;stroke-linejoin:round;stroke-miterlimit:4;stroke-dasharray:none;stroke-opacity:1" /><path
       d="m 17813.889,15902.072 -588.062,-242.578 -484.318,412.427 48.985,-634.241 -541.904,-333.167 618.335,-149.404 149.404,-618.336 333.167,541.904 634.241,-48.985 -412.427,484.319 z"
       id="path4409"
       inkscape:flatsided="false"
       inkscape:randomized="0"
       inkscape:rounded="0"
       inkscape:transform-center-x="44.647175"
       inkscape:transform-center-y="-44.647264"
       sodipodi:arg1="0.78539816"
       sodipodi:arg2="1.4137167"
       sodipodi:cx="17160.811"
       sodipodi:cy="15248.994"
       sodipodi:r1="923.59192"
       sodipodi:r2="415.61639"
       sodipodi:sides="5"
       sodipodi:type="star"
       style="fill:none;fill-opacity:1;fill-rule:evenodd;stroke:#cb6b00;stroke-width:100.00000763;stroke-linejoin:round;stroke-miterlimit:4;stroke-dasharray:none;stroke-opacity:1" /><path
       d="m 15631.232,15455.228 -89.371,216.654 151.946,178.434 -233.667,-18.048 -122.746,199.649 -55.043,-227.808 -227.808,-55.043 199.648,-122.746 -18.047,-233.667 178.434,151.946 z"
       id="path4411"
       inkscape:flatsided="false"
       inkscape:randomized="0"
       inkscape:rounded="0"
       inkscape:transform-center-x="16.44891"
       inkscape:transform-center-y="16.449005"
       sodipodi:arg1="-0.78539816"
       sodipodi:arg2="-0.15707963"
       sodipodi:cx="15390.624"
       sodipodi:cy="15695.836"
       sodipodi:r1="340.27072"
       sodipodi:r2="153.12183"
       sodipodi:sides="5"
       sodipodi:type="star"
       style="fill:none;fill-opacity:1;fill-rule:evenodd;stroke:#6cc200;stroke-width:100.00000763;stroke-linejoin:round;stroke-miterlimit:4;stroke-dasharray:none;stroke-opacity:1" /></g></svg>