<?xml version="1.0" encoding="UTF-8" standalone="no"?>
<svg
   xmlns:ooo="http://xml.openoffice.org/svg/export"
   xmlns:dc="http://purl.org/dc/elements/1.1/"
   xmlns:cc="http://creativecommons.org/ns#"
   xmlns:rdf="http://www.w3.org/1999/02/22-rdf-syntax-ns#"
   xmlns:svg="http://www.w3.org/2000/svg"
   xmlns="http://www.w3.org/2000/svg"
   xmlns:sodipodi="http://sodipodi.sourceforge.net/DTD/sodipodi-0.dtd"
   xmlns:inkscape="http://www.inkscape.org/namespaces/inkscape"
   version="1.2"
   width="567.35114"
   height="96.147102"
   viewBox="0 0 16011.91 2713.4849"
   preserveAspectRatio="xMidYMid"
   clip-path="url(#presentation_clip_path)"
   xml:space="preserve"
   id="svg2"
   inkscape:version="0.91 r13725"
   sodipodi:docname="zeugnis_logo_dummy.svg"
   style="fill-rule:evenodd;stroke-width:28.22200012;stroke-linejoin:round"
   inkscape:export-filename="/home/zorro/Dropbox/Bethel/schild/zeugnis_300_2015.png"
   inkscape:export-xdpi="299.54102"
   inkscape:export-ydpi="299.54102"><metadata
     id="metadata221"><rdf:RDF><cc:Work
         rdf:about=""><dc:format>image/svg+xml</dc:format><dc:type
           rdf:resource="http://purl.org/dc/dcmitype/StillImage" /><dc:title></dc:title></cc:Work></rdf:RDF></metadata><sodipodi:namedview
     pagecolor="#ffffff"
     bordercolor="#666666"
     borderopacity="1"
     objecttolerance="10"
     gridtolerance="10"
     guidetolerance="10"
     inkscape:pageopacity="0"
     inkscape:pageshadow="2"
     inkscape:window-width="1920"
     inkscape:window-height="1136"
     id="namedview219"
     showgrid="true"
     inkscape:document-units="cm"
     showguides="false"
     inkscape:snap-global="true"
     inkscape:snap-grids="false"
     inkscape:snap-to-guides="false"
     inkscape:zoom="1.6421381"
     inkscape:cx="260.67746"
     inkscape:cy="-92.978167"
     inkscape:window-x="0"
     inkscape:window-y="27"
     inkscape:window-maximized="1"
     inkscape:current-layer="g49"
     fit-margin-top="0"
     fit-margin-left="0"
     fit-margin-right="0"
     fit-margin-bottom="0"><inkscape:grid
       type="xygrid"
       id="grid3198"
       empspacing="5"
       visible="true"
       enabled="true"
       snapvisiblegridlinesonly="true"
       originx="-2466.5516"
       originy="-13299.528" /></sodipodi:namedview><defs
     class="ClipPathGroup"
     id="defs4"><clipPath
       id="presentation_clip_path"
       clipPathUnits="userSpaceOnUse"><rect
         x="0"
         y="0"
         width="21000"
         height="29700"
         id="rect7" /></clipPath><g
       transform="scale(4.8828125e-4,-4.8828125e-4)"
       id="bullet-char-template(8211)-2"><path
         id="path3535"
         d="m -4,459 1139,0 0,147 -1139,0 0,-147 z"
         inkscape:connector-curvature="0" /></g><g
       transform="scale(4.8828125e-4,-4.8828125e-4)"
       id="bullet-char-template(8226)-9"><path
         id="path3532"
         d="m 346,457 c -73,0 -137,26 -191,78 -54,51 -81,114 -81,188 0,73 27,136 81,188 54,52 118,78 191,78 73,0 134,-26 185,-79 51,-51 77,-114 77,-187 0,-75 -25,-137 -76,-188 -50,-52 -112,-78 -186,-78 z"
         inkscape:connector-curvature="0" /></g><g
       transform="scale(4.8828125e-4,-4.8828125e-4)"
       id="bullet-char-template(9679)-6"><path
         id="path3529"
         d="M 813,0 C 632,0 489,54 383,161 276,268 223,411 223,592 c 0,181 53,324 160,431 106,107 249,161 430,161 179,0 323,-54 432,-161 108,-107 162,-251 162,-431 0,-180 -54,-324 -162,-431 C 1136,54 992,0 813,0 Z"
         inkscape:connector-curvature="0" /></g><g
       transform="scale(4.8828125e-4,-4.8828125e-4)"
       id="bullet-char-template(10004)-1"><path
         id="path3526"
         d="M 285,-33 C 182,-33 111,30 74,156 52,228 41,333 41,471 c 0,78 14,145 41,201 34,71 87,106 158,106 53,0 88,-31 106,-94 l 23,-176 c 8,-64 28,-97 59,-98 l 735,706 c 11,11 33,17 66,17 42,0 63,-15 63,-46 l 0,-122 c 0,-36 -10,-64 -30,-84 L 442,47 C 390,-6 338,-33 285,-33 Z"
         inkscape:connector-curvature="0" /></g><g
       transform="scale(4.8828125e-4,-4.8828125e-4)"
       id="bullet-char-template(10007)-3"><path
         id="path3523"
         d="m 0,-2 c -7,16 -16,29 -25,39 l 381,530 c -94,256 -141,385 -141,387 0,25 13,38 40,38 9,0 21,-2 34,-5 21,4 42,12 65,25 l 27,-13 111,-251 280,301 64,-25 24,25 c 21,-10 41,-24 62,-43 C 886,937 835,863 770,784 769,783 710,716 594,584 L 774,223 c 0,-27 -21,-55 -63,-84 l 16,-20 C 717,90 699,76 672,76 641,76 570,178 457,381 L 164,-76 c -22,-34 -53,-51 -92,-51 -42,0 -63,17 -64,51 -7,9 -10,24 -10,44 0,9 1,19 2,30 z"
         inkscape:connector-curvature="0" /></g><g
       transform="scale(4.8828125e-4,-4.8828125e-4)"
       id="bullet-char-template(10132)-6"><path
         id="path3520"
         d="M 2015,739 1276,0 717,0 l 543,543 -1086,0 0,393 1086,0 -543,545 557,0 741,-742 z"
         inkscape:connector-curvature="0" /></g><g
       transform="scale(4.8828125e-4,-4.8828125e-4)"
       id="bullet-char-template(10146)-0"><path
         id="path3517"
         d="M 174,0 602,739 174,1481 1456,739 174,0 Z m 1184,739 -1049,607 350,-607 699,0 z"
         inkscape:connector-curvature="0" /></g><g
       transform="scale(4.8828125e-4,-4.8828125e-4)"
       id="bullet-char-template(57354)-7"><path
         id="path3514"
         d="m 8,1128 1129,0 L 1137,0 8,0 8,1128 Z"
         inkscape:connector-curvature="0" /></g><g
       transform="scale(4.8828125e-4,-4.8828125e-4)"
       id="bullet-char-template(57356)-0"><path
         id="path3511"
         d="M 580,1141 1163,571 580,0 -4,571 580,1141 Z"
         inkscape:connector-curvature="0" /></g><g
       id="g3506"
       ooo:id-list="id3"
       ooo:slide="id1" /><clipPath
       clipPathUnits="userSpaceOnUse"
       id="presentation_clip_path-1"><rect
         id="rect3502"
         height="29700"
         width="21000"
         y="0"
         x="0" /></clipPath></defs><defs
     class="TextShapeIndex"
     id="defs9"><g
       ooo:slide="id1"
       ooo:id-list="id3"
       id="g11" /></defs><defs
     class="EmbeddedBulletChars"
     id="defs13"><g
       id="bullet-char-template(57356)"
       transform="scale(4.8828125e-4,-4.8828125e-4)"><path
         d="M 580,1141 1163,571 580,0 -4,571 580,1141 Z"
         id="path16"
         inkscape:connector-curvature="0" /></g><g
       id="bullet-char-template(57354)"
       transform="scale(4.8828125e-4,-4.8828125e-4)"><path
         d="m 8,1128 1129,0 L 1137,0 8,0 8,1128 Z"
         id="path19"
         inkscape:connector-curvature="0" /></g><g
       id="bullet-char-template(10146)"
       transform="scale(4.8828125e-4,-4.8828125e-4)"><path
         d="M 174,0 602,739 174,1481 1456,739 174,0 Z m 1184,739 -1049,607 350,-607 699,0 z"
         id="path22"
         inkscape:connector-curvature="0" /></g><g
       id="bullet-char-template(10132)"
       transform="scale(4.8828125e-4,-4.8828125e-4)"><path
         d="M 2015,739 1276,0 717,0 l 543,543 -1086,0 0,393 1086,0 -543,545 557,0 741,-742 z"
         id="path25"
         inkscape:connector-curvature="0" /></g><g
       id="bullet-char-template(10007)"
       transform="scale(4.8828125e-4,-4.8828125e-4)"><path
         d="m 0,-2 c -7,16 -16,29 -25,39 l 381,530 c -94,256 -141,385 -141,387 0,25 13,38 40,38 9,0 21,-2 34,-5 21,4 42,12 65,25 l 27,-13 111,-251 280,301 64,-25 24,25 c 21,-10 41,-24 62,-43 C 886,937 835,863 770,784 769,783 710,716 594,584 L 774,223 c 0,-27 -21,-55 -63,-84 l 16,-20 C 717,90 699,76 672,76 641,76 570,178 457,381 L 164,-76 c -22,-34 -53,-51 -92,-51 -42,0 -63,17 -64,51 -7,9 -10,24 -10,44 0,9 1,19 2,30 z"
         id="path28"
         inkscape:connector-curvature="0" /></g><g
       id="bullet-char-template(10004)"
       transform="scale(4.8828125e-4,-4.8828125e-4)"><path
         d="M 285,-33 C 182,-33 111,30 74,156 52,228 41,333 41,471 c 0,78 14,145 41,201 34,71 87,106 158,106 53,0 88,-31 106,-94 l 23,-176 c 8,-64 28,-97 59,-98 l 735,706 c 11,11 33,17 66,17 42,0 63,-15 63,-46 l 0,-122 c 0,-36 -10,-64 -30,-84 L 442,47 C 390,-6 338,-33 285,-33 Z"
         id="path31"
         inkscape:connector-curvature="0" /></g><g
       id="bullet-char-template(9679)"
       transform="scale(4.8828125e-4,-4.8828125e-4)"><path
         d="M 813,0 C 632,0 489,54 383,161 276,268 223,411 223,592 c 0,181 53,324 160,431 106,107 249,161 430,161 179,0 323,-54 432,-161 108,-107 162,-251 162,-431 0,-180 -54,-324 -162,-431 C 1136,54 992,0 813,0 Z"
         id="path34"
         inkscape:connector-curvature="0" /></g><g
       id="bullet-char-template(8226)"
       transform="scale(4.8828125e-4,-4.8828125e-4)"><path
         d="m 346,457 c -73,0 -137,26 -191,78 -54,51 -81,114 -81,188 0,73 27,136 81,188 54,52 118,78 191,78 73,0 134,-26 185,-79 51,-51 77,-114 77,-187 0,-75 -25,-137 -76,-188 -50,-52 -112,-78 -186,-78 z"
         id="path37"
         inkscape:connector-curvature="0" /></g><g
       id="bullet-char-template(8211)"
       transform="scale(4.8828125e-4,-4.8828125e-4)"><path
         d="m -4,459 1139,0 0,147 -1139,0 0,-147 z"
         id="path40"
         inkscape:connector-curvature="0" /></g></defs><defs
     class="TextEmbeddedBitmaps"
     id="defs42" /><g
     id="g44"
     transform="translate(-2466.5517,-13686.987)"><g
       id="id2"
       class="Master_Slide"><g
         id="bg-id2"
         class="Background" /><g
         id="bo-id2"
         class="BackgroundObjects" /></g></g><g
     class="SlideGroup"
     id="g49"
     transform="translate(-2466.5517,-13686.987)"><text
       xml:space="preserve"
       style="font-style:normal;font-variant:normal;font-weight:normal;font-stretch:normal;font-size:1128.88891602px;line-height:125%;font-family:'Alfa Slab One';-inkscape-font-specification:'Alfa Slab One, Normal';text-align:start;letter-spacing:0px;word-spacing:0px;writing-mode:lr-tb;text-anchor:start;fill:#cd4800;fill-opacity:1;stroke:#000800;stroke-width:1px;stroke-linecap:butt;stroke-linejoin:miter;stroke-opacity:1;"
       x="2441.7161"
       y="16005.188"
       id="text4397"
       sodipodi:linespacing="125%"><tspan
         sodipodi:role="line"
         id="tspan4399"
         x="2441.7161"
         y="16005.188">Zeugnis</tspan></text>
<path
       sodipodi:type="star"
       style="fill:none;fill-opacity:1;fill-rule:evenodd;stroke:#cb0000;stroke-width:100;stroke-linejoin:round;stroke-miterlimit:4;stroke-dasharray:none;stroke-opacity:1"
       id="path4401"
       sodipodi:sides="5"
       sodipodi:cx="10475.352"
       sodipodi:cy="15695.836"
       sodipodi:r1="854.40344"
       sodipodi:r2="1898.6743"
       sodipodi:arg1="0.16366058"
       sodipodi:arg2="0.79197911"
       inkscape:flatsided="false"
       inkscape:rounded="0"
       inkscape:randomized="0"
       d="m 11318.338,15835.045 490.715,1212.163 -1205.6,-506.626 -1001.196,841.276 109.2793,-1303.149 -1109.488,-692.226 1273.1378,-298.764 315.4949,-1269.096 677.563,1118.503 1304.475,-92.118 z"
       inkscape:transform-center-x="-38.51625"
       inkscape:transform-center-y="44.048918"
       transform="matrix(0.43784315,0,0,0.46078618,3278.5854,7887.6846)" /><path
       sodipodi:type="star"
       style="fill:none;fill-opacity:1;fill-rule:evenodd;stroke:#00c3cb;stroke-width:100.00000763;stroke-linejoin:round;stroke-miterlimit:4;stroke-dasharray:none;stroke-opacity:1"
       id="path4403"
       sodipodi:sides="5"
       sodipodi:cx="10733.146"
       sodipodi:cy="14716.219"
       sodipodi:r1="850.32959"
       sodipodi:r2="382.64828"
       sodipodi:arg1="0.24497866"
       sodipodi:arg2="0.87329719"
       inkscape:flatsided="false"
       inkscape:rounded="0"
       inkscape:randomized="0"
       d="m 11558.087,14922.454 -579.164,87.046 -186.997,555.014 -261.757,-523.919 -585.6357,-6.336 417.3897,-410.846 -174.946,-558.93 519.719,270.003 477.513,-339.102 -96.187,577.717 z"
       inkscape:transform-center-x="-18.163887"
       inkscape:transform-center-y="63.730186" /><path
       sodipodi:type="star"
       style="fill:none;fill-opacity:1;fill-rule:evenodd;stroke:#cb0000;stroke-width:100.00000763;stroke-linejoin:round;stroke-miterlimit:4;stroke-dasharray:none;stroke-opacity:0.62154698"
       id="path4405"
       sodipodi:sides="5"
       sodipodi:cx="13293.9"
       sodipodi:cy="15059.945"
       sodipodi:r1="984.87958"
       sodipodi:r2="443.19583"
       sodipodi:arg1="0.51048832"
       sodipodi:arg2="1.1388069"
       inkscape:flatsided="false"
       inkscape:rounded="0"
       inkscape:randomized="0"
       d="m 14153.214,15541.161 -673.757,-78.734 -377.677,563.478 -133.322,-665.111 -652.608,-185.068 591.359,-332.328 -25.656,-677.856 498.802,459.722 636.751,-233.87 -283.083,616.45 z"
       inkscape:transform-center-x="59.368482"
       inkscape:transform-center-y="35.778061" /><path
       sodipodi:type="star"
       style="fill:none;fill-opacity:1;fill-rule:evenodd;stroke:#33008f;stroke-width:100.00000763;stroke-linejoin:round;stroke-miterlimit:4;stroke-dasharray:none;stroke-opacity:1"
       id="path4407"
       sodipodi:sides="5"
       sodipodi:cx="15442.183"
       sodipodi:cy="14235.004"
       sodipodi:r1="950.69733"
       sodipodi:r2="427.81381"
       sodipodi:arg1="0.86217005"
       sodipodi:arg2="1.4904886"
       inkscape:flatsided="false"
       inkscape:rounded="0"
       inkscape:randomized="0"
       d="m 16060.888,14956.827 -584.386,-295.388 -529.624,385.045 100.346,-647.064 -529.862,-384.717 646.403,-104.52 202.151,-622.812 299.153,582.467 654.799,-0.202 -461.516,464.503 z"
       inkscape:transform-center-x="23.567499"
       inkscape:transform-center-y="-68.076813" /><path
       sodipodi:type="star"
       style="fill:none;fill-opacity:1;fill-rule:evenodd;stroke:#cb6b00;stroke-width:100.00000763;stroke-linejoin:round;stroke-miterlimit:4;stroke-dasharray:none;stroke-opacity:1"
       id="path4409"
       sodipodi:sides="5"
       sodipodi:cx="17160.811"
       sodipodi:cy="15248.994"
       sodipodi:r1="923.59192"
       sodipodi:r2="415.61639"
       sodipodi:arg1="0.78539816"
       sodipodi:arg2="1.4137167"
       inkscape:flatsided="false"
       inkscape:rounded="0"
       inkscape:randomized="0"
       d="m 17813.889,15902.072 -588.062,-242.578 -484.318,412.427 48.985,-634.241 -541.904,-333.167 618.335,-149.404 149.404,-618.336 333.167,541.904 634.241,-48.985 -412.427,484.319 z"
       inkscape:transform-center-x="44.647175"
       inkscape:transform-center-y="-44.647264" /><path
       sodipodi:type="star"
       style="fill:none;fill-opacity:1;fill-rule:evenodd;stroke:#6cc200;stroke-width:100.00000763;stroke-linejoin:round;stroke-miterlimit:4;stroke-dasharray:none;stroke-opacity:1"
       id="path4411"
       sodipodi:sides="5"
       sodipodi:cx="15390.624"
       sodipodi:cy="15695.836"
       sodipodi:r1="340.27072"
       sodipodi:r2="153.12183"
       sodipodi:arg1="-0.78539816"
       sodipodi:arg2="-0.15707963"
       inkscape:flatsided="false"
       inkscape:rounded="0"
       inkscape:randomized="0"
       d="m 15631.232,15455.228 -89.371,216.654 151.946,178.434 -233.667,-18.048 -122.746,199.649 -55.043,-227.808 -227.808,-55.043 199.648,-122.746 -18.047,-233.667 178.434,151.946 z"
       inkscape:transform-center-x="16.44891"
       inkscape:transform-center-y="16.449005" /><path
       style="fill:#000000;fill-opacity:1;fill-rule:evenodd;stroke:#c300cc;stroke-width:29.15455627px;stroke-linecap:butt;stroke-linejoin:miter;stroke-opacity:1"
       d="m 2466.5674,16194.232 c 15966.0696,-17.177 15966.0696,-17.177 15966.0696,-17.177 l 0,0"
       id="path4413"
       inkscape:connector-curvature="0" /></g></svg>